Normalized EMG Linear Envelopes
nRows=213
nColumns=4

endheader
time	 med_gas_r	  soleus_r	 tib_ant_r	
6.3871	  0.036128	  0.108937	  0.070966	
6.42036	  0.036348	  0.105269	  0.071019	
6.45363	  0.036430	  0.101672	  0.071035	
6.4869	  0.036239	  0.097648	  0.070419	
6.52016	  0.035796	  0.093609	  0.069103	
6.55343	  0.035241	  0.090223	  0.067476	
6.58669	  0.034657	  0.087888	  0.065586	
6.61996	  0.034088	  0.086829	  0.063847	
6.65323	  0.033547	  0.086669	  0.062845	
6.68649	  0.033042	  0.086752	  0.062819	
6.71976	  0.032544	  0.086716	  0.063475	
6.75302	  0.032048	  0.085976	  0.064390	
6.78629	  0.031650	  0.084813	  0.065456	
6.81956	  0.031376	  0.083779	  0.066725	
6.85282	  0.031351	  0.083521	  0.067964	
6.88609	  0.031600	  0.084103	  0.069014	
6.91935	  0.032023	  0.085086	  0.070203	
6.95262	  0.032489	  0.085796	  0.071657	
6.98589	  0.032952	  0.086151	  0.073038	
7.01915	  0.033376	  0.086577	  0.074171	
7.05242	  0.033755	  0.087319	  0.075610	
7.08569	  0.034183	  0.088052	  0.077628	
7.11895	  0.034652	  0.087948	  0.079656	
7.15222	  0.035075	  0.087372	  0.080652	
7.18548	  0.035400	  0.087487	  0.080226	
7.21875	  0.035556	  0.088654	  0.078851	
7.25202	  0.035417	  0.090234	  0.076746	
7.28528	  0.034923	  0.090964	  0.074156	
7.31855	  0.034431	  0.090539	  0.071657	
7.35181	  0.034149	  0.089789	  0.069484	
7.38508	  0.033960	  0.089309	  0.067757	
7.41835	  0.033785	  0.089396	  0.066824	
7.45161	  0.033688	  0.089702	  0.066900	
7.48488	  0.033772	  0.090367	  0.067199	
7.51815	  0.034176	  0.092136	  0.066761	
7.55141	  0.034899	  0.094853	  0.065999	
7.58468	  0.035704	  0.097425	  0.065344	
7.61794	  0.036209	  0.098745	  0.064381	
7.65121	  0.036473	  0.098876	  0.063136	
7.68448	  0.036860	  0.098786	  0.062400	
7.71774	  0.037514	  0.098964	  0.062567	
7.75101	  0.038417	  0.098772	  0.063526	
7.78427	  0.039633	  0.097627	  0.065166	
7.81754	  0.040901	  0.096111	  0.067291	
7.85081	  0.041747	  0.094432	  0.069678	
7.88407	  0.041886	  0.092402	  0.071867	
7.91734	  0.041376	  0.089886	  0.073791	
7.9506	  0.040439	  0.087588	  0.075072	
7.98387	  0.039321	  0.086214	  0.075236	
8.01714	  0.038197	  0.085463	  0.074843	
8.0504	  0.037118	  0.084896	  0.074382	
8.08367	  0.036173	  0.084385	  0.073811	
8.11694	  0.035488	  0.084454	  0.073166	
8.1502	  0.035088	  0.085591	  0.072866	
8.18347	  0.035139	  0.087559	  0.072986	
8.21673	  0.035961	  0.089537	  0.073014	
8.25	  0.037976	  0.091017	  0.072914	
8.28327	  0.041638	  0.092156	  0.073163	
8.31653	  0.047440	  0.093070	  0.074169	
8.3498	  0.056064	  0.093870	  0.076167	
8.38306	  0.068123	  0.094137	  0.079719	
8.41633	  0.083769	  0.093874	  0.085569	
8.4496	  0.102216	  0.093715	  0.094452	
8.48286	  0.121687	  0.093842	  0.106859	
8.51613	  0.138853	  0.093687	  0.122846	
8.5494	  0.149762	  0.092952	  0.141605	
8.58266	  0.152351	  0.092250	  0.161520	
8.61593	  0.147091	  0.091834	  0.180906	
8.64919	  0.136987	  0.091561	  0.198541	
8.68246	  0.126762	  0.091563	  0.215165	
8.71573	  0.119385	  0.091884	  0.232249	
8.74899	  0.115965	  0.092434	  0.249818	
8.78226	  0.116277	  0.093287	  0.267459	
8.81552	  0.119116	  0.095045	  0.285905	
8.84879	  0.122556	  0.097917	  0.305966	
8.88206	  0.125887	  0.101379	  0.327435	
8.91532	  0.129497	  0.104836	  0.349928	
8.94859	  0.132992	  0.107771	  0.372517	
8.98185	  0.135973	  0.110267	  0.395426	
9.01512	  0.138895	  0.112324	  0.416409	
9.04839	  0.142461	  0.114120	  0.433374	
9.08165	  0.146347	  0.116251	  0.446161	
9.11492	  0.149264	  0.118956	  0.455042	
9.14819	  0.150542	  0.121955	  0.460573	
9.18145	  0.151030	  0.125029	  0.464680	
9.21472	  0.150747	  0.127953	  0.468667	
9.24798	  0.149663	  0.130557	  0.473398	
9.28125	  0.147687	  0.132797	  0.480683	
9.31452	  0.145363	  0.134790	  0.489171	
9.34778	  0.143723	  0.136851	  0.496859	
9.38105	  0.142764	  0.138640	  0.503874	
9.41431	  0.142469	  0.139982	  0.512071	
9.44758	  0.142608	  0.140627	  0.521581	
9.48085	  0.143781	  0.140175	  0.531025	
9.51411	  0.146741	  0.139021	  0.539719	
9.54738	  0.150705	  0.137067	  0.544832	
9.58065	  0.154581	  0.134153	  0.544433	
9.61391	  0.156606	  0.130678	  0.538121	
9.64718	  0.156048	  0.127038	  0.526374	
9.68044	  0.153456	  0.123393	  0.510694	
9.71371	  0.150243	  0.119687	  0.494071	
9.74698	  0.147525	  0.116444	  0.481243	
9.78024	  0.145571	  0.114630	  0.475067	
9.81351	  0.144693	  0.114784	  0.474468	
9.84677	  0.144977	  0.116268	  0.475773	
9.88004	  0.146138	  0.118997	  0.478103	
9.91331	  0.147993	  0.123242	  0.482217	
9.94657	  0.150257	  0.128537	  0.488204	
9.97984	  0.152458	  0.134045	  0.495809	
10.0131	  0.153654	  0.138916	  0.504791	
10.0464	  0.153704	  0.142283	  0.513911	
10.0796	  0.153072	  0.143714	  0.522108	
10.1129	  0.152321	  0.143266	  0.530629	
10.1462	  0.152259	  0.141633	  0.540415	
10.1794	  0.153260	  0.139893	  0.551369	
10.2127	  0.155244	  0.138843	  0.563314	
10.246	  0.157972	  0.138977	  0.575991	
10.2792	  0.161710	  0.140434	  0.589457	
10.3125	  0.167037	  0.142645	  0.602888	
10.3458	  0.173343	  0.144916	  0.613512	
10.379	  0.179150	  0.147245	  0.619444	
10.4123	  0.183487	  0.149422	  0.621904	
10.4456	  0.186685	  0.151078	  0.623529	
10.4788	  0.189637	  0.152172	  0.625803	
10.5121	  0.192305	  0.152948	  0.630496	
10.5454	  0.193191	  0.153625	  0.639305	
10.5786	  0.191388	  0.154524	  0.651278	
10.6119	  0.188105	  0.155048	  0.663316	
10.6452	  0.184715	  0.154246	  0.673498	
10.6784	  0.182644	  0.152424	  0.682511	
10.7117	  0.182680	  0.150854	  0.691284	
10.745	  0.184422	  0.150008	  0.700444	
10.7782	  0.185879	  0.149854	  0.708337	
10.8115	  0.185473	  0.150677	  0.711511	
10.8448	  0.182642	  0.152960	  0.707895	
10.878	  0.178519	  0.156652	  0.698361	
10.9113	  0.174284	  0.161369	  0.683937	
10.9446	  0.171551	  0.165672	  0.667390	
10.9778	  0.171010	  0.168276	  0.651303	
11.0111	  0.172044	  0.168598	  0.638324	
11.0444	  0.173673	  0.167369	  0.630938	
11.0776	  0.175489	  0.165581	  0.629963	
11.1109	  0.178457	  0.163835	  0.633727	
11.1442	  0.182240	  0.162088	  0.638822	
11.1774	  0.185332	  0.159880	  0.640698	
11.2107	  0.187555	  0.156754	  0.637579	
11.244	  0.189142	  0.153047	  0.631017	
11.2772	  0.188676	  0.149208	  0.622127	
11.3105	  0.186745	  0.145222	  0.612861	
11.3437	  0.184608	  0.141663	  0.605570	
11.377	  0.182511	  0.138755	  0.598752	
11.4103	  0.180926	  0.136321	  0.590152	
11.4435	  0.180249	  0.134434	  0.579714	
11.4768	  0.180311	  0.133643	  0.568813	
11.5101	  0.181331	  0.134883	  0.560740	
11.5433	  0.183430	  0.138389	  0.559427	
11.5766	  0.187017	  0.143820	  0.565113	
11.6099	  0.192220	  0.150252	  0.575194	
11.6431	  0.197564	  0.156374	  0.586300	
11.6764	  0.202155	  0.160312	  0.595293	
11.7097	  0.206841	  0.161229	  0.600352	
11.7429	  0.211264	  0.160590	  0.602267	
11.7762	  0.214890	  0.160326	  0.601794	
11.8095	  0.216920	  0.161060	  0.598844	
11.8427	  0.216725	  0.162494	  0.594969	
11.876	  0.215183	  0.163894	  0.590722	
11.9093	  0.213129	  0.164842	  0.587141	
11.9425	  0.210825	  0.165294	  0.584538	
11.9758	  0.208210	  0.165399	  0.581079	
12.0091	  0.205837	  0.165790	  0.574044	
12.0423	  0.205325	  0.166163	  0.561967	
12.0756	  0.207402	  0.165740	  0.545434	
12.1089	  0.212253	  0.163795	  0.527428	
12.1421	  0.218957	  0.159852	  0.510911	
12.1754	  0.225936	  0.154850	  0.500270	
12.2087	  0.232849	  0.150255	  0.498304	
12.2419	  0.240882	  0.146538	  0.504452	
12.2752	  0.249395	  0.144119	  0.515922	
12.3085	  0.256016	  0.143352	  0.528717	
12.3417	  0.257918	  0.144320	  0.541087	
12.375	  0.251721	  0.146192	  0.550115	
12.4083	  0.239125	  0.147139	  0.553981	
12.4415	  0.223630	  0.146025	  0.554393	
12.4748	  0.207834	  0.142913	  0.552739	
12.5081	  0.192406	  0.137676	  0.548309	
12.5413	  0.177399	  0.131282	  0.539362	
12.5746	  0.163430	  0.124828	  0.525246	
12.6079	  0.150707	  0.118121	  0.502978	
12.6411	  0.139560	  0.111059	  0.473400	
12.6744	  0.130336	  0.104523	  0.440626	
12.7077	  0.121946	  0.099175	  0.406806	
12.7409	  0.113454	  0.094951	  0.375358	
12.7742	  0.104406	  0.091474	  0.349283	
12.8075	  0.095313	  0.088049	  0.327975	
12.8407	  0.086950	  0.084393	  0.308662	
12.874	  0.079778	  0.080718	  0.289433	
12.9073	  0.074206	  0.076897	  0.269742	
12.9405	  0.070075	  0.072504	  0.249573	
12.9738	  0.067115	  0.067428	  0.228123	
13.0071	  0.064925	  0.062090	  0.204293	
13.0403	  0.063141	  0.057015	  0.178942	
13.0736	  0.061677	  0.052630	  0.153233	
13.1069	  0.060590	  0.049195	  0.127916	
13.1401	  0.060000	  0.046705	  0.103750	
13.1734	  0.060208	  0.044901	  0.081863	
13.2067	  0.061801	  0.043529	  0.063051	
13.2399	  0.064830	  0.042547	  0.047735	
13.2732	  0.068911	  0.042063	  0.035739	
13.3065	  0.073440	  0.042147	  0.026414	
13.3397	  0.077756	  0.042679	  0.018956	
13.373	  0.080566	  0.043708	  0.013251	
13.4062	  0.080278	  0.045334	  0.009226	
13.4395	  0.078040	  0.047445	  0.006663	
